<?xml version="1.0" encoding="utf-8"?>
<svg viewBox="0 0 24 24" fill="none" xmlns="http://www.w3.org/2000/svg">
  <path d="M 5.271 7.127 C 5.271 13.544 10.459 18.746 16.859 18.746 C 17.148 18.746 17.434 18.736 17.717 18.715 C 18.042 18.691 18.205 18.679 18.353 18.593 C 18.476 18.523 18.593 18.398 18.654 18.27 C 18.728 18.115 18.728 17.935 18.728 17.575 L 18.728 15.464 C 18.728 15.161 18.728 15.009 18.679 14.88 C 18.635 14.765 18.564 14.663 18.471 14.583 C 18.366 14.491 18.224 14.44 17.941 14.336 L 15.543 13.462 C 15.213 13.342 15.048 13.282 14.891 13.292 C 14.754 13.301 14.621 13.348 14.508 13.428 C 14.38 13.519 14.289 13.671 14.109 13.972 L 13.495 14.998 C 11.514 14.099 9.908 12.486 9.009 10.5 L 10.033 9.885 C 10.333 9.704 10.484 9.613 10.575 9.485 C 10.655 9.371 10.702 9.238 10.711 9.1 C 10.721 8.943 10.661 8.778 10.541 8.446 L 9.669 6.042 C 9.566 5.758 9.514 5.616 9.423 5.511 C 9.343 5.418 9.242 5.347 9.127 5.302 C 8.998 5.253 8.847 5.253 8.545 5.253 L 6.439 5.253 C 6.08 5.253 5.9 5.253 5.746 5.327 C 5.619 5.389 5.494 5.506 5.424 5.629 C 5.338 5.777 5.326 5.94 5.302 6.266 C 5.281 6.551 5.271 6.838 5.271 7.127 Z" style="fill: rgb(47, 88, 48); stroke-width: 0px;" stroke="#2F5830" stroke-linecap="round" stroke-linejoin="round"/>
</svg>