<?xml version="1.0" encoding="utf-8"?>
<svg viewBox="0 0 24 24" fill="none" xmlns="http://www.w3.org/2000/svg">
  <path d="M 20.869 12 C 20.869 16.919 16.898 20.906 12 20.906 C 7.101 20.906 3.13 16.919 3.13 12 C 3.13 7.081 7.101 3.094 12 3.094 C 16.898 3.094 20.869 7.081 20.869 12 Z M 4.748 12 C 4.748 16.021 7.995 19.281 12 19.281 C 16.005 19.281 19.251 16.021 19.251 12 C 19.251 7.979 16.005 4.719 12 4.719 C 7.995 4.719 4.748 7.979 4.748 12 Z" style="fill: rgb(169, 200, 87); stroke: rgb(169, 200, 87); stroke-width: 0.25px;"/>
  <path d="M 12 6.333 C 11.554 6.333 11.193 6.695 11.193 7.142 L 11.193 12.378 C 11.193 12.378 11.193 12.589 11.295 12.748 C 11.364 12.882 11.47 12.999 11.611 13.081 L 15.336 15.24 C 15.721 15.464 16.214 15.331 16.437 14.944 C 16.66 14.557 16.528 14.061 16.142 13.838 L 12.806 11.904 L 12.806 7.142 C 12.806 6.695 12.445 6.333 12 6.333 Z" style="fill: rgb(169, 200, 87); stroke: rgb(169, 200, 87); stroke-width: 0.25px;"/>
</svg>