<?xml version="1.0" encoding="utf-8"?><!-- Uploaded to: SVG Repo, www.svgrepo.com, Generator: SVG Repo Mixer Tools -->
<svg width="300px" height="300px" viewBox="0 0 24 24" fill="none" xmlns="http://www.w3.org/2000/svg">
<path d="M2 12C2 6.47715 6.47715 2 12 2C12.4627 2 12.5392 2.69347 12.1432 2.93276C10.2594 4.07105 9 6.13845 9 8.5C9 12.0899 11.9101 15 15.5 15C17.8615 15 19.9289 13.7406 21.0672 11.8568C21.3065 11.4608 22 11.5373 22 12C22 13.1377 21.81 14.231 21.46 15.25H22C22.4142 15.25 22.75 15.5858 22.75 16C22.75 16.4142 22.4142 16.75 22 16.75H2C1.58579 16.75 1.25 16.4142 1.25 16C1.25 15.5858 1.58579 15.25 2 15.25H2.53998C2.18999 14.231 2 13.1377 2 12Z" fill="#647064" fill-opacity="0.53"/>
<path d="M5 18.25C4.58579 18.25 4.25 18.5858 4.25 19C4.25 19.4142 4.58579 19.75 5 19.75H19C19.4142 19.75 19.75 19.4142 19.75 19C19.75 18.5858 19.4142 18.25 19 18.25H5Z" fill="#647064" fill-opacity="0.53"/>
<path d="M8 21.25C7.58579 21.25 7.25 21.5858 7.25 22C7.25 22.4142 7.58579 22.75 8 22.75H16C16.4142 22.75 16.75 22.4142 16.75 22C16.75 21.5858 16.4142 21.25 16 21.25H8Z" fill="#647064" fill-opacity="0.53"/>
</svg>
