<?xml version="1.0" encoding="utf-8"?>
<svg viewBox="0 0 1024 1024" xmlns="http://www.w3.org/2000/svg">
  <path d="M 386.474 657.736 C 416.431 696.563 454.355 742.671 453.399 796.405 C 383.287 804.725 308.076 776.992 266.009 713.55 C 243.382 679.577 235.415 641.096 233.822 599.842 C 232.228 554.081 232.865 508.667 234.778 462.906 C 317 473.653 392.529 525.307 436.827 601.575 C 436.827 618.909 436.827 636.242 437.783 653.229 C 439.376 677.843 442.563 702.11 449.256 725.337 C 436.508 699.684 418.662 676.11 402.09 654.963 C 368.309 610.589 333.571 566.908 289.274 534.321 C 281.625 528.774 274.614 541.948 282.262 547.494 C 323.373 577.308 355.242 617.175 386.474 657.736 Z M 763.165 228.556 C 782.924 329.784 794.715 434.479 788.979 538.134 C 786.429 585.628 768.901 634.162 738.945 669.176 C 710.581 702.457 677.119 730.884 638.876 749.604 C 615.612 761.045 591.391 767.631 565.896 771.791 C 545.5 775.258 526.06 780.458 506.301 787.045 C 500.246 745.791 511.719 704.884 525.423 666.75 C 532.752 646.989 540.082 628.269 543.588 607.122 C 544.544 601.922 545.181 596.375 546.137 591.175 C 592.985 571.761 637.283 529.467 689.866 537.441 C 698.79 538.828 702.614 523.921 693.691 522.534 C 639.195 514.214 596.809 552.001 549.324 573.148 C 550.918 565.868 552.83 558.241 555.061 550.961 C 578.644 475.386 633.458 418.532 689.229 369.651 C 696.24 363.411 686.361 352.664 679.35 358.904 C 621.667 409.865 566.215 468.8 541.676 546.801 C 538.17 557.894 535.939 569.335 534.027 580.775 C 532.434 582.855 532.115 585.628 532.752 588.055 C 531.796 594.988 530.522 601.575 529.247 608.509 C 525.423 630.002 516.499 649.763 509.169 670.216 C 496.422 706.27 487.817 743.711 491.641 782.192 C 466.146 747.178 455.63 702.804 452.443 658.43 C 451.168 639.016 450.849 619.602 451.168 600.535 C 451.487 599.495 451.487 598.802 451.168 597.762 C 451.168 591.868 451.168 586.322 451.487 580.428 C 451.805 554.428 452.443 528.427 459.135 503.467 C 471.245 458.746 498.334 419.919 528.291 386.985 C 558.248 353.704 592.347 324.584 629.953 302.05 C 652.261 288.877 676.163 278.823 699.108 266.343 C 720.779 254.903 742.132 241.729 763.165 228.556 Z" style="fill: rgba(181, 213, 119, 0); stroke: rgb(186, 218, 85);" transform="matrix(1, 0, 0, 1, 0, -1.4210854715202004e-14)"/>
  <path d="M 801.409 617.6 C 805.233 563.519 809.376 504.238 798.859 450.851 C 790.255 405.783 768.902 365.569 739.583 332.982 C 709.308 300.048 673.933 273.008 634.097 255.328 C 612.426 245.967 590.436 240.421 567.172 236.607 C 543.27 232.447 520.325 225.86 497.379 217.194 C 494.511 216.154 491.961 217.194 490.368 219.274 C 479.532 231.754 470.928 245.274 463.916 259.834 C 467.103 247.007 468.378 233.487 467.103 219.62 C 466.785 214.074 462.004 211.647 458.499 212.34 C 458.18 212.34 457.543 211.994 456.905 211.994 C 383.288 201.94 304.253 231.061 258.362 295.888 C 235.416 328.129 223.624 365.916 220.756 406.477 C 216.932 458.131 218.525 510.825 221.075 562.479 C 221.075 563.173 221.394 563.866 221.394 564.559 C 217.888 569.066 219.481 577.733 226.493 577.04 C 310.308 569.066 387.75 521.572 437.784 448.424 L 437.784 453.624 C 438.421 479.625 440.015 505.625 447.663 530.586 C 461.367 574.96 488.456 613.44 518.412 646.721 C 550.281 682.081 586.931 713.282 627.086 736.509 C 649.075 748.989 672.021 759.043 694.329 771.176 C 717.912 784.003 740.858 798.563 763.803 812.777 C 765.397 813.817 766.99 814.164 768.584 813.817 C 771.452 813.817 774.32 812.43 774.958 808.27 C 787.705 745.869 796.947 682.081 801.409 617.6 Z M 788.98 485.518 C 794.716 589.173 782.925 693.868 763.166 795.097 C 742.133 781.923 720.78 768.75 698.791 756.963 C 675.845 744.483 652.262 734.429 629.635 721.255 C 592.03 699.068 557.93 669.948 527.973 636.321 C 498.335 603.387 470.928 564.906 458.817 519.839 C 452.125 494.878 451.488 468.878 451.169 442.877 C 451.169 437.331 451.169 431.437 450.85 425.544 C 451.169 424.504 451.169 423.464 450.85 422.77 C 450.85 403.357 450.85 383.943 452.125 364.876 C 455.312 320.502 465.829 276.128 491.324 241.114 C 487.5 279.595 496.104 317.035 508.852 353.089 C 516.182 373.543 525.105 393.303 528.929 414.797 C 530.204 421.73 531.16 428.664 532.435 435.251 C 531.797 437.677 532.116 440.451 533.71 442.531 C 535.622 453.971 537.852 465.064 541.358 476.505 C 565.897 554.853 621.349 613.787 679.032 664.401 C 686.043 670.641 695.923 659.894 688.911 653.654 C 633.459 604.774 578.326 547.919 554.743 472.345 C 552.512 465.064 550.6 457.784 549.007 450.158 C 596.491 471.651 638.877 509.092 693.373 500.772 C 702.296 499.385 698.472 484.478 689.549 485.865 C 636.965 493.838 592.667 451.544 545.82 432.131 C 544.864 426.931 544.226 421.384 543.27 416.184 C 539.765 395.037 532.435 376.316 525.105 356.556 C 511.083 318.422 499.61 277.861 505.984 236.261 C 525.424 242.847 545.182 248.048 565.578 251.514 C 590.755 255.674 615.294 262.261 638.558 273.701 C 676.482 292.422 710.264 320.849 738.627 354.129 C 768.902 389.49 786.43 438.371 788.98 485.518 Z M 453.4 227.594 C 454.356 281.328 416.432 327.436 386.475 366.263 C 355.243 406.824 323.374 446.691 282.901 476.158 C 275.571 481.705 282.582 494.878 289.912 489.332 C 334.21 457.091 368.947 413.064 402.728 368.69 C 418.981 347.543 436.828 323.969 449.894 298.315 C 443.52 321.542 440.015 346.156 438.421 370.423 C 437.465 387.757 437.147 405.09 437.465 422.077 C 392.849 498.345 317.638 549.999 235.416 560.746 C 233.185 515.332 232.548 469.571 234.46 423.81 C 236.053 382.556 244.021 344.076 266.648 310.102 C 308.077 247.007 383.288 219.274 453.4 227.594 Z" style="stroke: rgb(47, 88, 48); fill: rgb(47, 88, 48); stroke-width: 15px; transform-origin: 512.001px 511.999px;" transform="matrix(-1, 0, 0, -1, 0.000122070312, 0.000061035156)"/>
</svg>